<?xml version="1.0" encoding="UTF-8"?><svg width="32px" height="32px" viewBox="0 0 32 32" version="1.1" xmlns="http://www.w3.org/2000/svg" xmlns:xlink="http://www.w3.org/1999/xlink"><g><g transform="translate(-1341.000000, -762.000000)"><g transform="translate(996.000000, 0.000000)"><g transform="translate(28.000000, 746.000000)"><g transform="translate(278.000000, 0.000000)"><g transform="translate(39.000000, 16.000000)"><path d="M30.6666667,2.66666667 L24,2.66666667 L24,0 L21.3333333,0 L21.3333333,2.66666667 L10.6666667,2.66666667 L10.6666667,0 L8,0 L8,2.66666667 L1.33333333,2.66666667 C0.6,2.66666667 0,3.26666667 0,4 L0,30.6666667 C0,31.4 0.6,32 1.33333333,32 L30.6666667,32 C31.4,32 32,31.4 32,30.6666667 L32,4 C32,3.26666667 31.4,2.66666667 30.6666667,2.66666667 Z M29.3333333,29.3333333 L2.66666667,29.3333333 L2.66666667,10.6666667 L29.3333333,10.6666667 L29.3333333,29.3333333 Z M11.4666667,24.1333333 L8.03333333,20.7 L9.93333333,18.8 L13.3333333,22.2333333 L22.1,13.4666667 L24,15.3666667 L15.2333333,24.1333333 L13.3333333,26 L11.4666667,24.1333333 Z"/></g></g></g></g></g></g></svg>