<?xml version="1.0" encoding="UTF-8"?><svg width="32px" height="30px" viewBox="0 0 32 30" version="1.1" xmlns="http://www.w3.org/2000/svg" xmlns:xlink="http://www.w3.org/1999/xlink"><g><g transform="translate(-1065.000000, -904.000000)"><g transform="translate(996.000000, 0.000000)"><g transform="translate(28.000000, 746.000000)"><g transform="translate(0.000000, 132.000000)"><g transform="translate(41.000000, 26.000000)"><path d="M22.2285714,3.4 C22,3.17142857 22,2.82857143 22.2285714,2.6 L24.6571429,0.171428571 C24.8857143,-0.0571428571 25.2285714,-0.0571428571 25.4571429,0.171428571 L29.4857143,4.2 C29.7142857,4.42857143 29.7142857,4.77142857 29.4857143,5 L27.0571429,7.42857143 C26.8285714,7.65714286 26.4857143,7.65714286 26.2571429,7.42857143 L22.2285714,3.4 Z M11.4285714,23.1142857 L24.7142857,9.82857143 C24.9142857,9.62857143 24.8857143,9.28571429 24.6571429,9.08571429 L20.6285714,5.02857143 C20.4,4.8 20.0571429,4.77142857 19.8857143,4.97142857 L6.57142857,18.2571429 L4.57142857,25.1142857 L11.4285714,23.1142857 Z M0,27.4 L0,29.6857143 L32,29.6857143 L32,27.4 L0,27.4 Z"/></g></g></g></g></g></g></svg>