<?xml version="1.0" encoding="UTF-8"?><svg width="31px" height="30px" viewBox="0 0 31 30" version="1.1" xmlns="http://www.w3.org/2000/svg" xmlns:xlink="http://www.w3.org/1999/xlink"><g><g transform="translate(-1205.000000, -904.000000)"><g transform="translate(996.000000, 0.000000)"><g transform="translate(28.000000, 746.000000)"><g transform="translate(139.000000, 132.000000)"><g transform="translate(42.000000, 26.000000)"><path d="M21.9970368,0 C23.5319041,0 24.7760924,1.24422292 24.7760924,2.77905566 L24.7760924,27.4959767 L26.3643314,27.5491412 L26.4357928,5.08183986 L27.6352056,5.08183986 C29.1700384,5.08183986 30.4142613,6.32602826 30.4142613,7.86089552 L30.4142613,27.0911321 C30.4142613,28.6202687 29.1788761,29.862144 27.649705,29.8701187 L2.79355508,29.9999617 C1.25875686,30.0079323 0.00804372631,28.7702341 0,27.2354014 L0,27.2281516 L0,2.77905566 C0,1.24422292 1.24422292,0 2.77905566,0 L21.9970368,0 Z M17.8278319,21.2007424 L5.20125295,21.2007424 C4.52154081,21.2007424 3.9705283,21.7517549 3.9705283,22.4314671 C3.9705283,23.1112137 4.52154081,23.6622608 5.20125295,23.6622608 L17.8278319,23.6622608 C18.507544,23.6622608 19.0585566,23.1112482 19.0585566,22.4315361 C19.0585566,21.7517894 18.507544,21.2007424 17.8278319,21.2007424 Z M17.8278319,16.3571418 L5.20125295,16.3571418 C4.52154081,16.3571418 3.9705283,16.9081198 3.9705283,17.5878665 C3.9705283,18.2676131 4.52154081,18.8186257 5.20125295,18.8186257 L17.8278319,18.8186257 C18.507544,18.8186257 19.0585566,18.2676477 19.0585566,17.587901 C19.0585566,16.9081544 18.507544,16.3571418 17.8278319,16.3571418 Z M10.3235186,6.43170142 L5.16155215,6.43170142 C4.50376176,6.43170142 3.9705283,6.96493488 3.9705283,7.62272527 L3.9705283,12.7840012 C3.9705283,13.4417916 4.50376176,13.9750251 5.16155215,13.9750251 L10.3235186,13.9750251 C10.981309,13.9750251 11.5145424,13.4417916 11.5145424,12.7840012 L11.5145424,7.62272527 C11.5145424,6.96493488 10.981309,6.43170142 10.3235186,6.43170142 Z M17.8278319,11.5135068 L14.3334715,11.5135068 C13.6537594,11.5135068 13.1027468,12.0645193 13.1027468,12.7442314 C13.1027468,13.4239781 13.6537594,13.9750251 14.3334715,13.9750251 L17.8278319,13.9750251 C18.507544,13.9750251 19.0585566,13.4240126 19.0585566,12.7443004 C19.0585566,12.0645538 18.507544,11.5135068 17.8278319,11.5135068 Z M17.8278319,6.43170142 L14.3334715,6.43170142 C13.6537594,6.43170142 13.1027468,6.98267941 13.1027468,7.66242606 C13.1027468,8.34217272 13.6537594,8.89318523 14.3334715,8.89318523 L17.8278319,8.89318523 C18.507544,8.89318523 19.0585566,8.34220724 19.0585566,7.66246059 C19.0585566,6.98271393 18.507544,6.43170142 17.8278319,6.43170142 Z"/></g></g></g></g></g></g></svg>