<?xml version="1.0" encoding="UTF-8"?><svg width="31px" height="32px" viewBox="0 0 31 32" version="1.1" xmlns="http://www.w3.org/2000/svg" xmlns:xlink="http://www.w3.org/1999/xlink"><title>编组</title><defs><linearGradient x1="100%" y1="50%" x2="0%" y2="50%" id="linearGradient-1"><stop stop-color="#FDE580" offset="0%"/><stop stop-color="#FCB205" offset="100%"/></linearGradient></defs><g id="页面-1" stroke="none" stroke-width="1"><g id="點擊姓名顯示學生詳細" transform="translate(-1064.000000, -762.000000)"><g id="编组-17" transform="translate(996.000000, 0.000000)"><g id="编组-14" transform="translate(28.000000, 746.000000)"><g id="编组" transform="translate(40.000000, 16.000000)"><path d="M21.7701381,14.2098843 C23.0302853,14.2098843 24.1945335,14.4454259 25.2998962,14.9097792 C26.4018941,15.3741325 27.3541549,16.0117771 28.1751854,16.8143007 C29.0012632,17.6403785 29.64732,18.5690852 30.1251328,19.6525762 C30.5995808,20.7360673 30.8384872,21.8818086 30.8384872,23.1049422 C30.8384872,24.333123 30.6029457,25.473817 30.1251328,26.5573081 C29.6456376,27.6357518 29.0012632,28.5930599 28.1751854,29.3955836 C27.3575198,30.1997897 26.405259,30.8357518 25.2998962,31.3001052 C24.192851,31.7661409 23.0201907,32 21.7701381,32 C20.5200855,32 19.3289183,31.7644585 18.2235555,31.3001052 C17.1215576,30.8357518 16.1692969,30.1981073 15.3482664,29.3955836 C14.5221886,28.5695058 13.8761318,27.6407992 13.3983189,26.5573081 C12.923871,25.4788644 12.6849646,24.333123 12.6849646,23.1049422 C12.6849646,21.8767613 12.9205061,20.7360673 13.3983189,19.6525762 C13.8778142,18.5741325 14.5272359,17.6168244 15.3482664,16.8143007 C16.165932,16.0100946 17.1181928,15.3741325 18.2235555,14.9097792 C19.323871,14.4437434 20.5150382,14.2098843 21.7701381,14.2098843 Z M11.7007374,0 C12.2593074,0 12.8061002,0.0672975815 13.3427984,0.193480547 C13.884544,0.321345952 14.3993705,0.491272345 14.8771833,0.681388013 C15.3499488,0.893375394 15.7789709,1.12891693 16.1491076,1.38128286 C16.5158794,1.63364879 16.8170361,1.91461619 17.0340708,2.16698212 C17.5303904,2.7575184 17.9005271,3.43554154 18.1175618,4.1573081 C18.3564683,4.87907466 18.5062054,5.57392219 18.6138815,6.23343849 C18.6946386,6.97371188 18.7619362,7.73585699 18.7619362,8.52155626 C18.8881192,8.60736067 19.0008426,8.73354364 19.086647,8.88328076 C19.1774988,9.01451104 19.2212422,9.18107256 19.2851749,9.39305994 C19.3289183,9.60504732 19.3289183,9.85741325 19.3070466,10.155205 C19.266668,10.5556257 19.1758163,10.8954784 19.0681402,11.1293375 C18.9369099,11.3598318 18.8073621,11.5533123 18.6576249,11.6794953 C18.4910634,11.8292324 18.3194546,11.9335436 18.1209267,12.0008412 C18.0805482,12.1051525 18.0351223,12.2313354 18.0132506,12.3575184 L17.8651959,12.7629863 C17.7743442,12.9985279 17.7339656,13.1465825 17.666668,13.2963197 C16.6925356,13.6933754 15.7806533,14.2031546 14.9814945,14.8626709 C14.1587816,15.5171399 13.4639341,16.2574132 12.8599383,17.1053628 C12.2761318,17.9499474 11.7983189,18.866877 11.4736081,19.881388 C11.1488973,20.8790747 10.9772884,21.940694 10.9772884,23.0410095 C10.9772884,24.0168244 11.1085187,24.9505783 11.365932,25.8523659 C11.6233452,26.740694 11.9934819,27.5886435 12.449423,28.3743428 L11.6872779,28.3743428 C11.1236607,28.3743428 10.4725566,28.3474238 9.73733051,28.3070452 C9.00210443,28.2666667 8.2433242,28.2262881 7.44080054,28.1623554 C6.66519591,28.0984227 5.87949665,28.0126183 5.10389202,27.9268139 C4.32324008,27.8443743 3.63175743,27.7585699 2.98233577,27.6508938 C2.35478582,27.5684543 1.81472273,27.4607781 1.38065333,27.3749737 C0.946583927,27.2925342 0.667298964,27.184858 0.53606868,27.0990536 C0.3156691,26.9493165 0.165931981,26.4849632 0.0582558511,25.6992639 C-0.0494202793,24.918612 -0.00904173038,23.9226078 0.189486135,22.6944269 C0.278655431,22.2283912 0.428392549,21.8498423 0.667298964,21.5520505 C0.902840499,21.2542587 1.20399718,21.0018927 1.55226216,20.7663512 C1.8988447,20.5526814 2.28748824,20.382755 2.69800349,20.2330179 C3.11356605,20.1068349 3.54258813,19.9806519 3.99852925,19.854469 C4.43091621,19.7249211 4.86498561,19.5987382 5.27550086,19.4490011 C5.6860161,19.2958991 6.07465964,19.1293375 6.39937047,18.9173502 C6.81493303,18.6599369 7.11272483,18.4294427 7.33312441,18.1955836 C7.55352399,17.9600421 7.70326111,17.7312303 7.81093724,17.4956887 C7.89337678,17.2601472 7.96067436,17.0313354 7.96067436,16.7957939 C7.96067436,16.543428 7.96067436,16.291062 7.93880264,15.9697161 C7.89337678,15.5491062 7.74027478,15.1840168 7.48286153,14.9316509 C7.22544828,14.679285 6.92260916,14.4218717 6.59789833,14.1459516 C6.44479633,14.0197687 6.29505922,13.829653 6.18738309,13.5957939 C6.06120012,13.3619348 5.94847667,13.1263933 5.86267225,12.8740273 C5.78191516,12.5930599 5.66919171,12.3003155 5.58338729,12.0025237 C5.45215701,11.9570978 5.32260916,11.8948475 5.17287204,11.8090431 C5.0601486,11.7232387 4.93396563,11.575184 4.80273535,11.4035752 C4.67150506,11.2319664 4.54027478,10.9964248 4.45447036,10.6582545 C4.36866595,10.3369085 4.32492252,10.0391167 4.34679423,9.78675079 C4.36866595,9.53270242 4.43259865,9.29884332 4.51840306,9.08685594 C4.6092548,8.87486856 4.71693093,8.68980021 4.88853976,8.49631966 C4.88853976,7.77960042 4.92891831,7.07970557 4.99621589,6.35793901 C5.08202031,5.76235542 5.20820327,5.10788644 5.40673114,4.40799159 C5.59684681,3.71314406 5.9030508,3.09400631 6.29169434,2.54384858 C6.67865543,2.01724501 7.08917068,1.5915878 7.52324008,1.27192429 C7.95562704,0.950578339 8.43007499,0.676340694 8.90788782,0.486225026 C9.38570065,0.297791798 9.8601486,0.171608833 10.3379614,0.10767613 C10.8157743,0.0403785489 11.2683505,0 11.7007374,0 Z M21.5564683,16.2304942 C20.8111475,16.2304942 20.2071518,16.8311251 20.2071518,17.5798107 L20.2071518,22.9821241 C20.2071518,23.3522608 20.3602537,23.6954784 20.6042075,23.9343849 L23.3028405,26.6431125 C23.5653011,26.9055731 23.9118836,27.0401682 24.2601486,27.0401682 C24.6067311,27.0401682 24.9499488,26.9038906 25.2124094,26.6431125 C25.7406954,26.1148265 25.7406954,25.2618297 25.2124094,24.7335436 L22.9057848,22.426919 L22.9057848,17.5798107 C22.9057848,16.83449 22.301789,16.2304942 21.5564683,16.2304942 Z" id="形状结合"/></g></g></g></g></g></svg>