<?xml version="1.0" encoding="UTF-8"?>
<svg width="28px" height="32px" viewBox="0 0 28 32" version="1.1" xmlns="http://www.w3.org/2000/svg" xmlns:xlink="http://www.w3.org/1999/xlink">
    <title>编组</title>
    <g id="页面-1" stroke="none" stroke-width="1" fill="none" fill-rule="evenodd">
        <g id="點擊姓名顯示學生詳細" transform="translate(-1204.000000, -762.000000)" fill="#999999" fill-rule="nonzero">
            <g id="编组-17" transform="translate(996.000000, 0.000000)">
                <g id="编组-14" transform="translate(28.000000, 746.000000)">
                    <g id="编组-16备份" transform="translate(139.000000, 0.000000)">
                        <g id="编组" transform="translate(41.000000, 16.000000)">
                            <path d="M26.5,3.50000002 L20.75,3.50000002 L20.75,5.75000002 C20.75,6.44097224 20.1909722,7.00000002 19.5,7.00000002 C18.8090278,7.00000002 18.25,6.44097224 18.25,5.75000002 L18.25,3.50000002 L9.74999999,3.50000002 L9.74999999,5.75000002 C9.74999999,6.44097224 9.19097222,7.00000002 8.5,7.00000002 C7.80902779,7.00000002 7.25000002,6.44097224 7.24999998,5.75000002 L7.24999998,3.50000002 L1.5,3.50000002 C0.670138879,3.50000002 0,4.1701389 0,5.00000002 L0,8.75000002 L28,8.75000002 L28,5.00000002 C28,4.1701389 27.3298611,3.50000002 26.5,3.50000002 L26.5,3.50000002 Z M3.55271368e-15,30.5 C3.55271368e-15,31.3298611 0.670138879,32 1.5,32 L26.5,32 C27.3298611,32 28,31.3298611 28,30.5 L28,9.74999999 L3.55271368e-15,9.74999999 L3.55271368e-15,30.5 L3.55271368e-15,30.5 Z M14,13.5 C17.8645833,13.5 21,16.6354167 21,20.5 C21,24.3645833 17.8645833,27.5 14,27.5 C10.1354166,27.5 7.00000001,24.3645833 7.00000001,20.5 C7.00000001,16.6354167 10.1354166,13.5 14,13.5 Z" id="形状"></path>
                            <path d="M8.49999998,6.25000001 C8.77777778,6.25000001 8.99999998,6.02777779 8.99999998,5.75000002 L8.99999998,0.5 C8.99999998,0.222222253 8.77777778,0 8.49999998,0 C8.22222223,0 7.99999998,0.222222217 7.99999998,0.5 L7.99999998,5.75000002 C7.99999998,6.02777779 8.2222222,6.25000001 8.49999998,6.25000001 Z M14,21 L17.75,21 C18.0277777,21 18.25,20.7743055 18.25,20.5 C18.25,20.2222222 18.0277778,20 17.75,20 L14.5,20 L14.5,16.25 C14.5,15.9722222 14.2777778,15.75 14,15.75 C13.7222222,15.75 13.5,15.9756944 13.5,16.25 L13.5,20.5 C13.5,20.7743055 13.7222222,21 14,21 L14,21 Z M19.5,6.25000001 C19.7777778,6.25000001 20,6.02777779 20,5.75000002 L20,0.5 C20,0.222222253 19.7777778,0 19.5,0 C19.2222222,0 19,0.222222217 19,0.5 L19,5.75000002 C19,6.02777779 19.2222222,6.25000001 19.5,6.25000001 Z" id="形状"></path>
                        </g>
                    </g>
                </g>
            </g>
        </g>
    </g>
</svg>