<?xml version="1.0" encoding="UTF-8"?>
<svg width="31px" height="32px" viewBox="0 0 31 32" version="1.1" xmlns="http://www.w3.org/2000/svg" xmlns:xlink="http://www.w3.org/1999/xlink">
    <title>编组</title>
    <g id="页面-1" stroke="none" stroke-width="1" fill="none" fill-rule="evenodd">
        <g id="學生詳細" transform="translate(-1344.000000, -902.000000)" fill="#999999" fill-rule="nonzero">
            <g id="编组-17" transform="translate(996.000000, 0.000000)">
                <g id="编组-14" transform="translate(28.000000, 746.000000)">
                    <g id="编组-15备份-2" transform="translate(278.000000, 132.000000)">
                        <g id="编组" transform="translate(42.000000, 24.000000)">
                            <path d="M14.8151358,8.04044781 C14.812001,8.01991087 14.7943393,8.00474052 14.7735645,8.00474052 C14.7527896,8.00474052 14.7351279,8.01991087 14.7319931,8.04044781 C14.6286265,8.67124113 11.0913687,18.4021508 11.0913687,18.4021508 C11.0874135,18.4127774 11.0888529,18.4246619 11.0952306,18.4340371 C11.1016083,18.4434123 11.1121335,18.4491159 11.1234702,18.4493399 L18.4368203,18.4493399 C18.448157,18.4491159 18.4586822,18.4434123 18.4650599,18.4340371 C18.4714376,18.4246619 18.472877,18.4127774 18.4689218,18.4021508 C18.4689218,18.4021508 14.9361582,8.735123 14.8151358,8.04044781 Z" id="路径"></path>
                            <path d="M28.0373982,0 L2.37550659,0 C1.06355053,0 0,1.06355053 0,2.37550659 L0,29.6238514 C0,30.9358074 1.06355053,31.999358 2.37550659,31.999358 L28.0373982,31.999358 C29.3493542,31.999358 30.4129048,30.9358074 30.4129048,29.6238514 L30.4129048,2.37614862 C30.4129048,1.74601387 30.1628744,1.14162952 29.717362,0.69599675 C29.2718496,0.250363976 28.6675329,0 28.0373982,0 Z M23.7287428,26.7693915 L22.1146824,26.7693915 C21.8191748,26.7686585 21.5546891,26.5858672 21.4495405,26.3096987 L19.5465671,21.3391116 C19.4411061,21.063322 19.1766906,20.880962 18.8814253,20.880382 L10.6769391,20.880382 C10.3761729,20.8804122 10.1077123,21.0690151 10.005698,21.3519522 L8.22149994,26.2978211 C8.1194059,26.5809798 7.85061835,26.7696319 7.54961678,26.7693915 L5.94454475,26.7693915 C5.70902375,26.7689076 5.48890898,26.6522467 5.35628683,26.4576144 C5.22366468,26.2629821 5.1956169,26.015447 5.281329,25.7960756 L13.0286907,5.98017737 C13.1996321,5.54294444 13.6211453,5.25532682 14.0906063,5.25532682 L15.5717668,5.25532682 C16.0493633,5.25532682 16.4779433,5.54865129 16.6513382,5.99365997 L24.3938847,25.7960756 C24.4797202,26.0157642 24.4514601,26.2636748 24.3183832,26.4584089 C24.1853064,26.653143 23.9646046,26.7693915 23.7287428,26.7693915 L23.7287428,26.7693915 Z M27.9622808,11.4618193 C27.9622808,11.6761646 27.7885196,11.8499258 27.5741744,11.8499258 L25.9495205,11.8499258 C25.8465882,11.8499258 25.7478719,11.8908154 25.6750878,11.9635995 C25.6023037,12.0363836 25.5614141,12.1351 25.5614141,12.2380322 L25.5614141,13.8110028 C25.5616699,13.9141018 25.5208932,14.0130657 25.4480814,14.0860582 C25.3752695,14.1590507 25.2764069,14.2000722 25.1733076,14.2000722 L24.6988483,14.2000722 C24.4845031,14.2000722 24.3107419,14.0263111 24.3107419,13.8119658 L24.3107419,12.2389952 C24.3109989,12.1356733 24.2700462,12.0365139 24.1969562,11.9634842 C24.1238663,11.8904545 24.0246731,11.8495836 23.9213515,11.8499257 L22.2976606,11.8499257 C22.0833153,11.8499257 21.9095542,11.6761646 21.9095542,11.4618193 L21.9095542,11.0380803 C21.9095542,10.9351481 21.9504438,10.8364317 22.0232279,10.7636477 C22.096012,10.6908636 22.1947284,10.6499739 22.2976606,10.6499739 L23.9213515,10.6499739 C24.1356967,10.6499739 24.3094579,10.4762127 24.3094579,10.2618675 L24.3094579,8.68889691 C24.3094573,8.58574182 24.3505232,8.48683034 24.4235852,8.41400925 C24.4966472,8.34118816 24.5956938,8.30044921 24.6988483,8.30078837 L25.1733076,8.30078837 C25.2762398,8.30078837 25.3749562,8.34168015 25.4477403,8.41446422 C25.5205244,8.48724829 25.5614141,8.58596468 25.5614141,8.68889691 L25.5614141,10.2618675 C25.5614141,10.4762127 25.7351752,10.6499739 25.9495205,10.6499739 L27.5741744,10.6499739 C27.6771066,10.6499739 27.775823,10.6908636 27.8486071,10.7636477 C27.9213911,10.8364317 27.9622808,10.9351481 27.9622808,11.0380803 L27.9622808,11.4618193 Z" id="形状"></path>
                        </g>
                    </g>
                </g>
            </g>
        </g>
    </g>
</svg>